<svg xmlns="http://www.w3.org/2000/svg" width="2047" height="2048" viewBox="0 0 2047 2048" version="1.1"><path d="M 430.500 172.087 C 410.037 175.095, 390.163 195.293, 376.465 227.004 C 332.187 329.502, 311.963 472.980, 316.818 650.169 C 320.503 784.663, 331.447 851.685, 371.001 982 C 420.957 1146.583, 446.932 1225.773, 479.242 1312 C 492.979 1348.659, 493.618 1353.172, 485.555 1356.541 C 476.223 1360.441, 475.036 1359.375, 343.972 1229.395 C 223.125 1109.548, 175.188 1065.716, 116 1020.947 C 58.828 977.703, 16.466 1006.314, 30.787 1078.500 C 44.723 1148.747, 71.613 1224.591, 137.505 1379.500 C 193.741 1511.706, 206.911 1546.723, 232.884 1633.087 C 271.997 1763.150, 330.115 1821.698, 359.825 1760.967 C 387.105 1705.203, 357.924 1581.741, 277.439 1412.402 C 268.838 1394.306, 258.222 1371.961, 253.847 1362.748 C 240.722 1335.104, 241.726 1323.833, 257.312 1323.833 C 266.661 1323.833, 269.498 1326.200, 303.824 1362.639 C 328.584 1388.924, 363.082 1421.851, 430.500 1483.548 C 450.300 1501.668, 470.547 1520.320, 475.494 1524.996 C 508.629 1556.325, 528.889 1576.329, 545.009 1593.629 C 581.794 1633.109, 588.361 1639.040, 602.500 1645.551 C 632.611 1659.417, 662.420 1645.141, 671.512 1612.500 C 681.422 1576.919, 673.202 1547.063, 592.496 1325.500 C 540.202 1181.934, 519.104 1119.508, 498.880 1048.500 C 449.582 875.411, 436.550 732.198, 457.612 595 C 461.443 570.047, 467.921 537.035, 480.476 478.500 C 498.193 395.896, 503.120 368.834, 508.149 326.500 C 518.964 235.447, 483.206 164.339, 430.500 172.087 M 1922.625 349.490 C 1912.314 351.634, 1904.550 354.410, 1882 364.012 C 1848.017 378.483, 1839.217 380.784, 1796 386.502 C 1733.051 394.831, 1712.060 402.875, 1686.478 428.472 C 1641.541 473.434, 1642.566 518.603, 1691.385 644.704 C 1718.363 714.388, 1727.581 745.835, 1730.530 778.247 C 1731.771 791.891, 1728.661 793.903, 1705.062 794.727 C 1684.555 795.443, 1683.513 795.926, 1684.354 804.343 C 1685.086 811.672, 1686.518 830.513, 1688.002 852.346 C 1691.450 903.067, 1700.691 916.375, 1727 908.500 C 1742.842 903.758, 1743.987 904.711, 1747.448 925.500 C 1776.767 1101.640, 1777.094 1225.452, 1748.540 1339 C 1723.030 1440.445, 1714.199 1444.582, 1564 1425.444 C 1362.715 1399.797, 1217.060 1349.653, 1109.388 1268.937 C 1056.723 1229.457, 1053.960 1169.857, 1098.638 1037.059 C 1130.335 942.844, 1222.348 758.345, 1267.983 697.500 C 1343.796 596.418, 1422.486 570.786, 1491.500 624.692 C 1535.749 659.254, 1569.244 630.664, 1558.501 567.500 C 1536.875 440.338, 1375.878 444.432, 1250.374 575.335 C 1182.482 646.149, 1121.691 753.647, 1078.085 880 C 1066.189 914.472, 1061.561 921.322, 1052.175 918.349 C 1043.421 915.576, 1041.966 911.994, 1040.880 890.537 C 1038.364 840.835, 1035.966 814.446, 1030.519 776.500 C 1017.217 683.842, 990.431 583.199, 946.017 459 C 927.284 406.616, 902.743 385.522, 873.753 396.888 C 843.739 408.656, 838.406 446.803, 857.031 516.500 C 919.390 749.857, 951.331 941.189, 962.203 1146.500 C 963.929 1179.086, 963.931 1304.827, 962.207 1335.500 C 958.338 1404.314, 953.790 1451.835, 945.363 1511.500 C 935.833 1578.969, 952.041 1610.789, 992.989 1605.002 C 1023.324 1600.714, 1028.568 1588.678, 1053.020 1467.237 C 1067.766 1394.003, 1066.972 1394.704, 1113.509 1413.832 C 1197.178 1448.221, 1305.984 1479.507, 1467 1515.476 C 1669.062 1560.614, 1773.243 1541.017, 1802.903 1452.289 C 1844.621 1327.494, 1856.716 1115.184, 1832.446 933.738 C 1826.231 887.276, 1826.683 886.818, 1880.500 884.988 C 1938.407 883.019, 1954.041 869.407, 1955.709 819.500 C 1957.802 756.879, 1931.944 741.062, 1860 760.958 C 1820.530 771.873, 1817.861 771.196, 1810.878 748.500 C 1781.284 652.308, 1782.416 604.744, 1815.080 572.080 C 1833.235 553.925, 1849.731 548.104, 1899 542.464 C 1947.623 536.899, 1969.012 528.283, 1990.962 505.419 C 2053.300 440.487, 2005.837 332.186, 1922.625 349.490 M 619 434.427 C 579.771 443.147, 556.132 475.252, 538.691 543.500 C 516.073 632.008, 518.501 729.267, 547.116 881 C 585.086 1082.345, 603.383 1150.052, 645.479 1245 C 688.913 1342.966, 762.132 1455.335, 795.251 1474.855 C 840.984 1501.810, 875.751 1475.835, 892.849 1401.939 C 951.053 1150.372, 901.981 790.186, 780.254 575.500 C 719.829 468.932, 667.952 423.547, 619 434.427 M 667.491 619.865 C 652.743 626.565, 650.429 638.684, 651.332 704.500 C 654.134 908.827, 706.009 1150.925, 780.558 1307.597 C 792.287 1332.244, 807.451 1328.466, 810.254 1300.198 C 811.897 1283.632, 811.884 1168.116, 810.236 1144 C 799.414 985.586, 766.878 829.557, 709.571 661.256 C 697.163 624.816, 684.346 612.208, 667.491 619.865 M 1581.763 668.461 C 1555.807 678.362, 1534.890 727.043, 1542.852 759.015 C 1558.153 820.454, 1621.302 828.491, 1636.908 770.987 C 1650.759 719.950, 1616.033 655.388, 1581.763 668.461 M 1350.500 778.144 C 1318.648 781.657, 1290.456 796.105, 1272.731 818 C 1241.620 856.429, 1187.879 962.969, 1165.604 1030.372 C 1141.642 1102.883, 1170.810 1185.766, 1256.652 1289.084 C 1282.861 1320.628, 1309.012 1331.494, 1361.731 1332.742 C 1437.522 1334.536, 1467.056 1314.958, 1488.894 1248.445 C 1508.295 1189.357, 1498.556 1185.824, 1411.624 1220.413 C 1343.828 1247.387, 1329.819 1249.015, 1317.872 1231.311 C 1315.127 1227.243, 1305.870 1214.146, 1297.300 1202.207 C 1256.147 1144.874, 1241.269 1116.610, 1247.983 1108.520 C 1252.032 1103.641, 1282.770 1097.726, 1323.500 1093.987 C 1404.715 1086.532, 1444.043 1073.240, 1474.057 1043.101 C 1518.787 998.185, 1534.794 933.546, 1513.180 885.109 C 1479.505 809.641, 1419.953 770.484, 1350.500 778.144 M 1592.404 852.020 C 1579.639 853.367, 1566.398 858.411, 1564.154 862.781 C 1563.669 863.727, 1562.975 886.808, 1562.612 914.073 C 1562.249 941.338, 1561.302 994.994, 1560.508 1033.308 C 1555.691 1265.512, 1557.462 1320.743, 1570.237 1336.798 C 1598.397 1372.187, 1656.054 1382.840, 1669.868 1355.207 C 1685.402 1324.130, 1682.963 1298.973, 1664.021 1294.911 C 1652.257 1292.388, 1649.528 1287.062, 1647.005 1261.708 C 1640.234 1193.642, 1637.758 1110.870, 1638.132 965 C 1638.402 859.694, 1638.706 865.704, 1632.845 860.363 C 1625.418 853.594, 1609.196 850.247, 1592.404 852.020 M 1365.355 879.998 C 1346.916 883.832, 1329.659 903.611, 1300.733 954.065 C 1267.871 1011.385, 1268.201 1012.188, 1323.358 1009.057 C 1371.608 1006.318, 1412.960 995.135, 1427.089 981.006 C 1454.304 953.791, 1404.260 871.909, 1365.355 879.998" stroke="none" fill="#000000" fill-rule="evenodd"/></svg>